<?xml version="1.0" encoding="iso-8859-1"?>
<!-- Generator: Adobe Illustrator 19.0.0, SVG Export Plug-In . SVG Version: 6.00 Build 0)  -->
<svg version="1.1" id="Capa_1" xmlns="http://www.w3.org/2000/svg" xmlns:xlink="http://www.w3.org/1999/xlink" x="0px" y="0px"
	 viewBox="0 0 511.999 511.999" style="enable-background:new 0 0 511.999 511.999;" xml:space="preserve">
<path style="fill:#EDA751;" d="M350.649,396.742c-23.95,2.95-48.019-1.079-68.937-21.09c-6.117-5.852-6.332-15.555-0.479-21.672
	c5.854-6.119,15.555-6.332,21.672-0.48c17.495,16.738,39.855,17.707,79.735,3.462c10.801-3.858,13.453-11.017,17.974-25.554
	c5.315-17.093,12.595-40.502,44.712-50.42c8.077-2.499,16.671,2.034,19.169,10.124c2.499,8.089-2.035,16.671-10.124,19.169
	c-15.941,4.923-19.357,13.752-24.483,30.231c-4.743,15.254-11.24,36.144-36.935,45.321
	C379.365,390.685,365.029,394.971,350.649,396.742z"/>
<path style="fill:#FCD79D;" d="M464.495,291.111c-2.498-8.09-11.092-12.623-19.169-10.124c-6.071,1.874-11.251,4.232-15.702,6.937
	c0.835,9.035,4.322,20.63,14.312,27.264c2.756-1.968,6.137-3.583,10.435-4.91C462.46,307.781,466.993,299.2,464.495,291.111z"/>
<g>
	<path style="fill:#EDA751;" d="M207.172,504.5c-13.546,0-24.525-10.98-24.525-24.525c0-6.895,0.043-15.074,0.087-23.743
		c0.11-20.92,0.234-44.632-0.198-59.568c-0.389-13.54,10.27-24.832,23.809-25.222c13.521-0.409,24.831,10.269,25.222,23.808
		c0.454,15.773,0.328,39.928,0.217,61.239c-0.046,8.575-0.088,16.667-0.088,23.486C231.697,493.52,220.716,504.5,207.172,504.5z"/>
	<path style="fill:#EDA751;" d="M291.284,504.5c-13.546,0-24.525-10.98-24.525-24.525c0-6.826-0.042-14.924-0.087-23.506
		c-0.111-21.304-0.237-45.451,0.215-61.217c0.39-13.541,11.73-24.213,25.221-23.81c13.54,0.39,24.2,11.682,23.81,25.22
		c-0.43,14.934-0.307,38.637-0.198,59.55c0.045,8.676,0.089,16.863,0.089,23.762C315.81,493.52,304.829,504.5,291.284,504.5z"/>
	<path style="fill:#EDA751;" d="M136.089,428.053c-3.63,0-7.315-0.808-10.793-2.516c-12.159-5.97-17.175-20.665-11.204-32.824
		c11.192-22.795,24.119-73.768,25.53-84.184c1.82-13.423,14.179-22.83,27.597-21.01c13.424,1.819,22.828,14.175,21.009,27.596
		c-2.046,15.097-16.265,71.025-30.108,99.216C153.859,423.013,145.148,428.053,136.089,428.053z"/>
	<path style="fill:#EDA751;" d="M362.367,428.053c-9.061,0-17.771-5.039-22.032-13.722c-13.844-28.191-28.063-84.12-30.108-99.216
		c-1.819-13.422,7.587-25.777,21.009-27.596c13.412-1.823,25.777,7.587,27.597,21.01c1.411,10.417,14.339,61.388,25.53,84.184
		c5.971,12.159,0.954,26.854-11.204,32.824C369.68,427.244,365.995,428.053,362.367,428.053z"/>
</g>
<g>
	<path style="opacity:0.2;fill:#A35F00;enable-background:new    ;" d="M206.345,371.441c-13.54,0.39-24.198,11.683-23.809,25.222
		c0.312,10.801,0.333,26.19,0.28,41.794c14.772,8.048,31.336,13.497,48.981,15.681c0.107-20.719,0.208-43.692-0.229-58.888
		C231.176,381.709,219.865,371.032,206.345,371.441z"/>
	<path style="opacity:0.2;fill:#A35F00;enable-background:new    ;" d="M292.107,371.441c-13.492-0.404-24.83,10.27-25.221,23.81
		c-0.436,15.196-0.335,38.17-0.228,58.887c17.645-2.183,34.209-7.632,48.981-15.681c-0.053-15.604-0.032-30.994,0.279-41.796
		C316.308,383.122,305.647,371.831,292.107,371.441z"/>
	<path style="opacity:0.2;fill:#A35F00;enable-background:new    ;" d="M358.833,308.529c-1.82-13.423-14.186-22.833-27.597-21.01
		c-13.424,1.819-22.828,14.175-21.009,27.596c2.045,15.097,16.265,71.025,30.108,99.216c0.768,1.565,1.686,3.007,2.719,4.328
		c14.47-13.584,25.625-30.281,32.228-48.917C367.09,345.595,359.867,316.165,358.833,308.529z"/>
	<path style="opacity:0.2;fill:#A35F00;enable-background:new    ;" d="M167.221,287.519c-13.419-1.82-25.777,7.588-27.597,21.01
		c-1.034,7.636-8.258,37.066-16.45,61.214c6.604,18.635,17.759,35.332,32.228,48.916c1.034-1.32,1.951-2.762,2.719-4.327
		c13.844-28.191,28.063-84.12,30.108-99.216C190.049,301.694,180.643,289.338,167.221,287.519z"/>
</g>
<ellipse style="fill:#FCD690;" cx="249.223" cy="330.402" rx="113.117" ry="105.117"/>
<path style="opacity:0.15;fill:#C17A00;enable-background:new    ;" d="M232.709,434.393
	c-51.693-33.938-37.688-100.541-26.897-124.066V233.31c-40.927,15.821-69.704,53.33-69.704,97.088
	C136.107,383.237,178.065,426.963,232.709,434.393z"/>
<path style="fill:#EDA751;" d="M180.386,157.981c22.135-18.574,36.914-49.754,5.692-95.846
	C154.611,15.68,107.759,4.035,71.182,8.344c-9.018,1.063-16.584,7.412-19.197,16.108c-10.596,35.273-7.263,83.435,33.023,122.492
	C124.98,185.695,158.252,176.555,180.386,157.981z"/>
<path style="fill:#FF91AB;" d="M50.514,29.848c-8.687,34.681-3.775,79.992,34.495,117.095c34.645,33.588,64.251,31.188,85.942,17.86
	C156.033,63.537,90.869,36.683,50.514,29.848z"/>
<path style="fill:#EDA751;" d="M318.069,157.981c-22.135-18.574-36.914-49.754-5.692-95.846
	c31.468-46.456,78.32-58.102,114.897-53.792c9.018,1.063,16.584,7.411,19.197,16.108c10.596,35.273,7.263,83.435-33.023,122.492
	C373.476,185.695,340.203,176.555,318.069,157.981z"/>
<path style="fill:#FF91AB;" d="M447.941,29.848c8.686,34.681,3.775,79.992-34.495,117.095
	c-34.645,33.588-64.251,31.188-85.942,17.86C342.422,63.537,407.586,36.683,447.941,29.848z"/>
<path style="fill:#FFDC9C;" d="M441.814,186.015c0,88.056-86.224,126.623-192.586,126.623S56.641,274.07,56.641,186.015
	S142.865,26.577,249.227,26.577S441.814,97.959,441.814,186.015z"/>
<path style="opacity:0.15;fill:#C17A00;enable-background:new    ;" d="M146.396,51.193C92.46,79.448,56.641,129.266,56.641,186.016
	c0,75.695,63.716,114.82,149.17,124.313C83.146,237.056,99.144,138.499,146.396,51.193z"/>
<path d="M353.149,217.682c9.06-1.198,30.007,0.334,37.926,2.313c0.611,0.153,1.223,0.226,1.825,0.226
	c3.36-0.001,6.418-2.275,7.271-5.683c1.004-4.018-1.439-8.09-5.457-9.095c-9.581-2.396-32.409-4.101-43.529-2.632
	c-4.106,0.543-6.996,4.312-6.453,8.419C345.274,215.336,349.058,218.224,353.149,217.682z M343.161,243.481
	c8.829,2.344,27.617,11.742,34.185,16.59c1.341,0.989,2.9,1.466,4.448,1.466c2.3,0,4.569-1.054,6.04-3.046
	c2.46-3.333,1.753-8.028-1.58-10.488c-7.945-5.865-28.402-16.142-39.243-19.02c-4.01-1.061-8.111,1.322-9.174,5.325
	C336.775,238.311,339.159,242.418,343.161,243.481z M323.41,195.755c4.143,0,7.5-3.358,7.5-7.5v-12.314c0-4.142-3.357-7.5-7.5-7.5
	c-4.143,0-7.5,3.358-7.5,7.5v12.314C315.91,192.397,319.267,195.755,323.41,195.755z M151.444,228.983
	c-10.842,2.878-31.298,13.155-39.242,19.02c-3.333,2.46-4.04,7.156-1.58,10.488c1.471,1.992,3.74,3.046,6.04,3.046
	c1.547,0,3.108-0.477,4.448-1.467c6.566-4.847,25.354-14.246,34.184-16.589c4.003-1.063,6.387-5.17,5.324-9.173
	C159.555,230.305,155.456,227.922,151.444,228.983z M471.661,288.898c-1.799-5.826-5.762-10.604-11.157-13.452
	c-5.393-2.849-11.571-3.425-17.391-1.625c-35.892,11.082-44.178,37.726-49.661,55.358c-4.524,14.549-6.297,18.206-13.335,20.719
	c-0.989,0.353-1.969,0.696-2.943,1.032c-2.846-9.542-5.479-19.312-7.621-28.084c-0.539-7.588-1.892-15.069-4.045-22.37
	c8.487-3.456,16.415-7.348,23.72-11.676c39.307-23.288,60.083-58.831,60.083-102.785c0-19.529-3.983-38.531-11.622-56.371
	c21.192-31.623,27.032-70.489,15.961-107.35c-3.479-11.584-13.49-19.982-25.501-21.398c-36.739-4.328-72.9,7.175-99.998,31.622
	c-24.613-8.807-51.347-13.442-78.925-13.442s-54.312,4.635-78.925,13.442C143.205,8.07,107.047-3.434,70.304,0.895
	c-12.013,1.416-22.023,9.816-25.5,21.398c-11.073,36.861-5.234,75.727,15.96,107.35c-7.639,17.839-11.622,36.841-11.622,56.371
	c0,52.856,29.368,92.443,83.787,114.518c-2.143,7.284-3.49,14.746-4.028,22.313c-5.509,22.558-14.264,51.74-21.54,66.561
	c-3.771,7.679-4.325,16.366-1.562,24.461c2.764,8.096,8.515,14.631,16.192,18.401c4.438,2.179,9.181,3.284,14.099,3.284
	c12.316,0,23.338-6.865,28.765-17.916c0.742-1.511,1.497-3.126,2.261-4.831c2.631,2.287,5.37,4.467,8.212,6.53
	c0.038,11.774-0.031,25.019-0.092,36.856l-0.008,1.619c-0.041,8.082-0.08,15.688-0.08,22.162c0,17.659,14.367,32.025,32.025,32.025
	s32.025-14.367,32.025-32.025c0-6.808,0.042-14.886,0.088-23.447l0.001-0.293c0.023-4.446,0.046-9.015,0.065-13.601
	c3.259,0.248,6.552,0.38,9.878,0.38c3.326,0,6.619-0.132,9.878-0.38c0.019,4.587,0.042,9.155,0.065,13.601l0.001,0.294
	c0.046,8.56,0.088,16.639,0.088,23.446c0,17.659,14.367,32.025,32.025,32.025c13.79,0,25.995-8.781,30.372-21.85
	c1.315-3.928-0.802-8.178-4.729-9.494c-3.927-1.315-8.178,0.802-9.493,4.73c-2.327,6.947-8.817,11.614-16.15,11.614
	c-9.389,0-17.026-7.638-17.026-17.026c0-6.831-0.042-14.937-0.088-23.524l-0.002-0.293c-0.026-5.078-0.052-10.314-0.072-15.557
	c12.105-2.378,23.543-6.458,34.022-11.955c0.006,7.973,0.045,16.266,0.086,24.288c0.022,4.129,3.375,7.461,7.499,7.461h0.04
	c4.142-0.021,7.482-3.396,7.461-7.538c-0.057-11.195-0.11-22.914-0.075-33.52c2.842-2.063,5.581-4.243,8.212-6.531
	c0.764,1.706,1.519,3.322,2.26,4.831c5.427,11.051,16.449,17.916,28.765,17.916c4.918,0,9.661-1.105,14.098-3.284
	c7.679-3.77,13.43-10.306,16.193-18.401c2.247-6.581,2.3-13.553,0.216-20.055c0.854-0.298,1.72-0.603,2.604-0.919
	c29.22-10.436,36.654-34.338,41.574-50.157c4.923-15.832,7.251-21.499,19.534-25.292c5.826-1.799,10.603-5.76,13.451-11.151
	C472.883,300.902,473.461,294.724,471.661,288.898z M429.814,113.884c-9.777-17.021-23.086-32.695-39.625-46.387
	c-1.172-0.97-2.356-1.927-3.551-2.87c18.736-15.105,39.275-22.454,55.511-26.014C445.404,56.496,446.268,84.879,429.814,113.884z
	 M426.395,15.792c5.167,0.609,9.592,3.779,11.884,8.315C419.487,28.31,395.6,37.13,374.111,55.54
	c-9.512-6.359-19.62-11.938-30.216-16.694C367.033,20.621,396.489,12.268,426.395,15.792z M72.06,15.792
	c29.906-3.52,59.361,4.829,82.499,23.055c-10.595,4.755-20.702,10.335-30.214,16.693c-21.489-18.41-45.377-27.23-64.167-31.432
	C62.467,19.571,66.893,16.401,72.06,15.792z M56.307,38.614c16.236,3.56,36.774,10.91,55.51,26.014
	c-1.195,0.943-2.38,1.9-3.551,2.87C91.728,81.19,78.418,96.865,68.641,113.884C52.187,84.879,53.051,56.496,56.307,38.614z
	 M151.389,411.027c-2.886,5.876-8.748,9.527-15.301,9.527c-2.605,0-5.124-0.588-7.486-1.749c-4.083-2.004-7.14-5.478-8.609-9.782
	c-1.469-4.304-1.174-8.922,0.831-13.005c4.236-8.628,8.667-20.933,12.695-33.797c4.578,14.486,12.197,27.764,22.166,39.19
	C154.209,404.991,152.77,408.216,151.389,411.027z M224.287,456.157l-0.002,0.292c-0.046,8.59-0.088,16.695-0.088,23.526
	c0,9.388-7.638,17.026-17.026,17.026c-9.388,0-17.026-7.638-17.026-17.026c0-6.453,0.039-14.033,0.079-22.085l0.009-1.619
	c0.046-8.818,0.095-18.415,0.102-27.625c10.479,5.497,21.918,9.577,34.023,11.955C224.339,445.843,224.312,451.079,224.287,456.157z
	 M249.227,428.013c-58.24,0-105.62-43.79-105.62-97.615c0-8.399,1.163-16.684,3.436-24.722c9.966,3.255,20.64,5.998,32.014,8.197
	c4.079,0.785,8.001-1.874,8.787-5.94c0.787-4.067-1.873-8.001-5.939-8.788c-13.264-2.565-25.485-5.9-36.655-9.969
	c-0.116-0.05-0.228-0.105-0.347-0.15c-0.229-0.085-0.461-0.156-0.692-0.218c-19.168-7.101-35.155-16.413-47.766-27.851
	c-21.435-19.444-32.304-44.659-32.304-74.943c0-83.78,83.029-151.939,185.086-151.939s185.086,68.159,185.086,151.939
	c0,38.91-17.741,69.149-52.73,89.88c-8.42,4.989-17.764,9.358-27.929,13.101c-0.034,0.012-0.069,0.02-0.103,0.033
	c-0.027,0.01-0.051,0.023-0.078,0.033c-28.785,10.568-64.19,16.077-104.247,16.077c-11.232,0-22.28-0.444-32.841-1.32
	c-4.145-0.345-7.752,2.727-8.095,6.854c-0.342,4.128,2.727,7.752,6.855,8.094c10.971,0.91,22.437,1.372,34.081,1.372
	c38.517,0,73.108-4.957,102.174-14.497c2.28,8.05,3.446,16.347,3.446,24.757C354.848,384.223,307.467,428.013,249.227,428.013z
	 M378.461,409.023c-1.47,4.304-4.526,7.778-8.61,9.783c-2.361,1.16-4.88,1.748-7.485,1.748c-6.553,0-12.415-3.651-15.301-9.527
	c-1.378-2.805-2.817-6.031-4.297-9.616c9.97-11.426,17.588-24.704,22.166-39.189c4.029,12.864,8.459,25.169,12.695,33.797
	C379.635,400.101,379.93,404.719,378.461,409.023z M456.772,299.29c-0.977,1.849-2.615,3.207-4.613,3.825
	c-20.459,6.317-24.616,19.687-29.432,35.17c-4.513,14.51-10.129,32.567-32.295,40.484c-1.18,0.421-2.319,0.819-3.442,1.208
	c-1.757-4.443-3.546-9.437-5.311-14.735c1.153-0.396,2.313-0.799,3.485-1.218c14.807-5.288,18.252-16.366,22.613-30.392
	c5.089-16.364,11.422-36.728,39.767-45.48c1.991-0.618,4.108-0.418,5.958,0.559c1.852,0.978,3.211,2.616,3.828,4.614
	C457.947,295.322,457.748,297.441,456.772,299.29z M175.046,168.442c-4.143,0-7.5,3.358-7.5,7.5v12.314c0,4.142,3.357,7.5,7.5,7.5
	s7.5-3.358,7.5-7.5v-12.314C182.546,171.8,179.189,168.442,175.046,168.442z M145.306,217.682c4.097,0.543,7.875-2.346,8.418-6.453
	c0.543-4.107-2.347-7.876-6.453-8.419c-11.118-1.468-33.947,0.237-43.528,2.632c-4.019,1.004-6.462,5.076-5.458,9.095
	c0.853,3.408,3.91,5.683,7.271,5.683c0.603,0,1.214-0.073,1.824-0.226C115.3,218.015,136.249,216.485,145.306,217.682z
	 M224.743,203.365c1.422,1.238,3.177,1.846,4.925,1.846c2.093,0,4.175-0.871,5.657-2.573c3.51-4.027,8.577-6.337,13.903-6.337
	s10.395,2.31,13.904,6.338c2.723,3.123,7.46,3.448,10.582,0.726c3.123-2.722,3.447-7.459,0.727-10.581
	c-6.36-7.297-15.55-11.482-25.212-11.482c-9.663,0-18.853,4.186-25.211,11.483C221.294,195.906,221.621,200.644,224.743,203.365z"/>
<g>
</g>
<g>
</g>
<g>
</g>
<g>
</g>
<g>
</g>
<g>
</g>
<g>
</g>
<g>
</g>
<g>
</g>
<g>
</g>
<g>
</g>
<g>
</g>
<g>
</g>
<g>
</g>
<g>
</g>
</svg>
